<svg width="23" height="19" viewBox="0 0 23 19" fill="none" xmlns="http://www.w3.org/2000/svg">
<path d="M7.98043 18.9999C8.85488 18.9999 9.56376 18.291 9.56376 17.4166C9.56376 16.5421 8.85488 15.8333 7.98043 15.8333C7.10598 15.8333 6.39709 16.5421 6.39709 17.4166C6.39709 18.291 7.10598 18.9999 7.98043 18.9999Z" fill="#3C3C43" fill-opacity="0.6"/>
<path d="M19.0637 18.9999C19.9382 18.9999 20.6471 18.291 20.6471 17.4166C20.6471 16.5421 19.9382 15.8333 19.0637 15.8333C18.1893 15.8333 17.4804 16.5421 17.4804 17.4166C17.4804 18.291 18.1893 18.9999 19.0637 18.9999Z" fill="#3C3C43" fill-opacity="0.6"/>
<path d="M21.8742 2.80943C21.763 2.67338 21.6229 2.56381 21.464 2.48867C21.3052 2.41353 21.1316 2.3747 20.9559 2.375H5.8969L5.59359 0.654115C5.56125 0.470808 5.46536 0.30476 5.32275 0.185135C5.18014 0.0655105 4.99994 -3.91091e-05 4.8138 1.75058e-08H1.64714C1.43717 1.75058e-08 1.23581 0.0834077 1.08734 0.231874C0.938876 0.38034 0.855469 0.581704 0.855469 0.791667C0.855469 1.00163 0.938876 1.20299 1.08734 1.35146C1.23581 1.49993 1.43717 1.58333 1.64714 1.58333H4.14979L6.40901 14.3876C6.44135 14.5709 6.53725 14.7369 6.67986 14.8565C6.82247 14.9762 7.00266 15.0417 7.1888 15.0417H19.8555C20.0654 15.0417 20.2668 14.9583 20.4153 14.8098C20.5637 14.6613 20.6471 14.46 20.6471 14.25C20.6471 14.04 20.5637 13.8387 20.4153 13.6902C20.2668 13.5417 20.0654 13.4583 19.8555 13.4583H7.85281L7.57375 11.875H19.5309C19.8054 11.8747 20.0714 11.7795 20.2839 11.6055C20.4963 11.4316 20.6421 11.1896 20.6966 10.9205L22.1216 3.79555C22.156 3.62311 22.1516 3.44521 22.1088 3.27467C22.066 3.10414 21.9859 2.94523 21.8742 2.80943V2.80943Z" fill="#3C3C43" fill-opacity="0.6"/>
</svg>
