<svg width="25" height="24" viewBox="0 0 25 24" fill="none" xmlns="http://www.w3.org/2000/svg">
<path d="M21.977 9.08502L14.5649 2.98907C13.3679 2.00707 11.633 2.00607 10.436 2.98907L3.02399 9.08404C2.70499 9.34704 2.65796 9.81907 2.92096 10.1401C3.18396 10.4611 3.65699 10.5051 3.97699 10.2431L4.99994 9.40106V18.0001C4.99994 20.2901 6.20994 21.5001 8.49994 21.5001H16.4999C18.7899 21.5001 19.9999 20.2901 19.9999 18.0001V9.40204L21.0229 10.2441C21.1629 10.3591 21.3319 10.4151 21.4999 10.4151C21.7159 10.4151 21.9309 10.322 22.0789 10.142C22.3429 9.82003 22.296 9.34802 21.977 9.08502ZM14.9999 20.0001H9.99994V16.5001C9.99994 15.1191 11.1189 14.0001 12.4999 14.0001C13.8809 14.0001 14.9999 15.1191 14.9999 16.5001V20.0001Z" fill="#EF5222"/>
</svg>
