<svg width="21" height="20" viewBox="0 0 21 20" fill="none" xmlns="http://www.w3.org/2000/svg">
<path d="M3.4 18.52H17.8C19.1255 18.52 20.2 17.4455 20.2 16.12V6.28C20.2 4.95452 19.1255 3.88 17.8 3.88H15.4L13.72 1H7.48L5.8 3.88H3.4C2.07452 3.88 1 4.95451 1 6.28V16.12C1 17.4455 2.07452 18.52 3.4 18.52Z" fill="white"/>
<path d="M14.2 10.6C14.2 12.5882 12.5882 14.2 10.6 14.2C8.61177 14.2 7 12.5882 7 10.6C7 8.61177 8.61177 7 10.6 7C12.5882 7 14.2 8.61177 14.2 10.6Z" fill="white"/>
<path d="M5.8 3.88V4.38C5.97783 4.38 6.14228 4.28554 6.23189 4.13194L5.8 3.88ZM7.48 1V0.5C7.30217 0.5 7.13771 0.594456 7.04811 0.748065L7.48 1ZM13.72 1L14.1519 0.748065C14.0623 0.594456 13.8978 0.5 13.72 0.5V1ZM15.4 3.88L14.9681 4.13194C15.0577 4.28554 15.2222 4.38 15.4 4.38V3.88ZM1.5 16.12V6.28H0.5V16.12H1.5ZM3.4 4.38H5.8V3.38H3.4V4.38ZM6.23189 4.13194L7.91189 1.25194L7.04811 0.748065L5.36811 3.62806L6.23189 4.13194ZM7.48 1.5H13.72V0.5H7.48V1.5ZM13.2881 1.25194L14.9681 4.13194L15.8319 3.62806L14.1519 0.748065L13.2881 1.25194ZM15.4 4.38H17.8V3.38H15.4V4.38ZM19.7 6.28V16.12H20.7V6.28H19.7ZM19.7 16.12C19.7 17.1693 18.8493 18.02 17.8 18.02V19.02C19.4016 19.02 20.7 17.7216 20.7 16.12H19.7ZM17.8 4.38C18.8493 4.38 19.7 5.23066 19.7 6.28H20.7C20.7 4.67837 19.4016 3.38 17.8 3.38V4.38ZM1.5 6.28C1.5 5.23066 2.35066 4.38 3.4 4.38V3.38C1.79837 3.38 0.5 4.67837 0.5 6.28H1.5ZM3.4 18.02C2.35066 18.02 1.5 17.1693 1.5 16.12H0.5C0.5 17.7216 1.79837 19.02 3.4 19.02V18.02ZM13.7 10.6C13.7 12.3121 12.3121 13.7 10.6 13.7V14.7C12.8644 14.7 14.7 12.8644 14.7 10.6H13.7ZM10.6 13.7C8.88792 13.7 7.5 12.3121 7.5 10.6H6.5C6.5 12.8644 8.33563 14.7 10.6 14.7V13.7ZM7.5 10.6C7.5 8.88792 8.88792 7.5 10.6 7.5V6.5C8.33563 6.5 6.5 8.33563 6.5 10.6H7.5ZM10.6 7.5C12.3121 7.5 13.7 8.88792 13.7 10.6H14.7C14.7 8.33563 12.8644 6.5 10.6 6.5V7.5ZM17.8 18.02H3.4V19.02H17.8V18.02Z" fill="#3C3C43" fill-opacity="0.6"/>
</svg>
